
<svg xmlns="http://www.w3.org/2000/svg" viewBox="0 0 50 50" width="100" height="100">
  <path fill="none" stroke="#1F4CCF" stroke-linejoin="round" stroke-width="2" d="M25 44.667L25 33" />
  <path fill="none" stroke="#1F4CCF" stroke-linecap="round" stroke-linejoin="round" stroke-width="2" d="M25 3A5 5 0 1 0 25 13 5 5 0 1 0 25 3zM34 32V20.5c0-2.481-2.018-4.5-4.5-4.5h-.9-7.2-.9c-2.482 0-4.5 2.019-4.5 4.5V32M30 32c0 1.105.895 2 2 2 1.105 0 2-.895 2-2M16 32c0 1.105.895 2 2 2s2-.895 2-2" />
  <path fill="none" stroke="#1F4CCF" stroke-linejoin="round" stroke-width="2" d="M25 44.5c0 1.381-1.119 2.5-2.5 2.5S20 45.881 20 44.5V23M25 44.5c0 1.381 1.119 2.5 2.5 2.5s2.5-1.119 2.5-2.5V23" />
</svg>