<svg xmlns="http://www.w3.org/2000/svg" version="1.1" viewBox="-5.0 -10.0 110.0 135.0">
    <g>
        <path
            d="m58.723 57.352c5.3633-2.1016 9.7891-6.0703 12.477-11.109 12.652-3.1875 20.801-16.355 20.801-33.742 0-0.82812-0.67188-1.5-1.5-1.5h-16.5v-3c0.82812 0 1.5-0.67188 1.5-1.5s-0.67188-1.5-1.5-1.5h-48c-0.82812 0-1.5 0.67188-1.5 1.5s0.67188 1.5 1.5 1.5h45v27c0 11.578-9.4219 21-21 21s-21-9.4219-21-21v-22.5c0-0.82812-0.67188-1.5-1.5-1.5h-18c-0.82812 0-1.5 0.67188-1.5 1.5 0 17.391 8.1484 30.559 20.805 33.742 2.6836 5.0391 7.1133 9.0117 12.477 11.109 4.1836 3.5664 4.8672 11.828 1.4727 16.648h-6.2539c-2.4805 0-4.5 2.0195-4.5 4.5v1.5h-4.5c-0.82812 0-1.5 0.67188-1.5 1.5v12c0 0.82812 0.67188 1.5 1.5 1.5h45c0.82812 0 1.5-0.67188 1.5-1.5v-12c0-0.82812-0.67188-1.5-1.5-1.5h-4.5v-1.5c0-2.4805-2.0195-4.5-4.5-4.5h-6.25c-3.3945-4.8203-2.707-13.086 1.4727-16.648zm30.258-43.352c-0.41016 14.109-6.6055 24.898-16.215 28.586 0.79688-2.3867 1.2344-4.9336 1.2344-7.5859v-21zm-77.961 0h14.98v21c0 2.6523 0.4375 5.1992 1.2344 7.5859-9.6094-3.6875-15.805-14.477-16.215-28.586zm59.98 78h-42v-9h42zm-6-13.5v1.5h-30v-1.5c0-0.82812 0.67578-1.5 1.5-1.5h27c0.82422 0 1.5 0.67188 1.5 1.5zm-18.762-4.5c2.3789-4.7031 2.2344-10.82-0.17969-15.328 1.2852 0.21094 2.5977 0.32812 3.9414 0.32812s2.6562-0.11719 3.9375-0.32812c-2.4102 4.5078-2.5547 10.625-0.17578 15.328z" />
        <path
            d="m66.5 23.121c0.82812 0 1.5-0.67188 1.5-1.5v-3.1211c0-0.82812-0.67188-1.5-1.5-1.5s-1.5 0.67188-1.5 1.5v3.1211c0 0.82812 0.67188 1.5 1.5 1.5z" />
        <path
            d="m65 35c0 7.6992-5.7656 14.113-13.41 14.922-0.82422 0.085937-1.4219 0.82422-1.332 1.6484 0.082032 0.76953 0.73047 1.3438 1.4883 1.3438 0.054687 0 0.10938-0.003906 0.16016-0.007812 9.1719-0.97266 16.094-8.668 16.094-17.906v-6c0-0.82812-0.67188-1.5-1.5-1.5s-1.5 0.67188-1.5 1.5z" />
    </g>
</svg>