<svg xmlns="http://www.w3.org/2000/svg" version="1.1"
    x="0px" y="0px" viewBox="0 0 100 125"
>
    <g>
        <path
            d="M72.17,19.91h-8.26c-0.15-1.98-1.79-3.55-3.81-3.55h-4.43c-0.31-2.9-2.77-5.17-5.75-5.17s-5.44,2.27-5.75,5.17h-4.43   c-2.02,0-3.66,1.57-3.81,3.55h-8.1c-2.5,0-4.53,2.03-4.53,4.53v59.85c0,2.5,2.03,4.53,4.53,4.53h44.35c2.5,0,4.53-2.03,4.53-4.53   V24.43C76.7,21.94,74.67,19.91,72.17,19.91z M37.13,20.19c0-1.44,1.17-2.61,2.61-2.61h5.02c0.34,0,0.61-0.28,0.61-0.61   c0-2.51,2.04-4.55,4.55-4.55c2.51,0,4.55,2.04,4.55,4.55c0,0.34,0.28,0.61,0.61,0.61h5.02c1.44,0,2.61,1.17,2.61,2.61v0.34   c0,1.44-1.17,2.61-2.61,2.61H39.74c-1.44,0-2.61-1.17-2.61-2.61V20.19z M75.47,84.29c0,1.82-1.48,3.3-3.3,3.3H27.83   c-1.82,0-3.3-1.48-3.3-3.3V24.43c0-1.82,1.48-3.3,3.3-3.3h8.13c0.29,1.83,1.87,3.23,3.78,3.23H60.1c1.91,0,3.48-1.4,3.78-3.23h8.29   c1.82,0,3.3,1.48,3.3,3.3V84.29z" />
        <path
            d="M49.92,20.65c1.59,0,2.88-1.29,2.88-2.88c0-1.59-1.29-2.88-2.88-2.88s-2.88,1.29-2.88,2.88   C47.04,19.36,48.33,20.65,49.92,20.65z M49.92,16.13c0.91,0,1.65,0.74,1.65,1.65c0,0.91-0.74,1.65-1.65,1.65   c-0.91,0-1.65-0.74-1.65-1.65C48.27,16.87,49.01,16.13,49.92,16.13z" />
        <path
            d="M35.54,32.02c-3.63,0-6.59,2.96-6.59,6.59s2.96,6.59,6.59,6.59c3.63,0,6.59-2.96,6.59-6.59S39.18,32.02,35.54,32.02z    M35.54,43.97c-2.96,0-5.36-2.41-5.36-5.36s2.41-5.36,5.36-5.36s5.36,2.41,5.36,5.36S38.5,43.97,35.54,43.97z" />
        <path
            d="M38.57,36.32l-3.16,3.27l-1.57-1.64c-0.23-0.25-0.62-0.25-0.87-0.02c-0.25,0.23-0.25,0.62-0.02,0.87l2.01,2.11   c0.12,0.12,0.28,0.19,0.44,0.19c0,0,0,0,0,0c0.17,0,0.33-0.07,0.44-0.19l3.61-3.73c0.24-0.24,0.23-0.63-0.01-0.87   C39.19,36.07,38.8,36.08,38.57,36.32z" />
        <path
            d="M46.69,36.32h9.85c0.34,0,0.61-0.28,0.61-0.61c0-0.34-0.28-0.61-0.61-0.61h-9.85c-0.34,0-0.61,0.28-0.61,0.61   C46.07,36.04,46.35,36.32,46.69,36.32z" />
        <path
            d="M68.01,41.07H46.69c-0.34,0-0.61,0.28-0.61,0.61c0,0.34,0.28,0.61,0.61,0.61h21.32c0.34,0,0.61-0.28,0.61-0.61   C68.62,41.34,68.35,41.07,68.01,41.07z" />
        <path
            d="M35.54,48.98c-3.63,0-6.59,2.96-6.59,6.59s2.96,6.59,6.59,6.59c3.63,0,6.59-2.96,6.59-6.59S39.18,48.98,35.54,48.98z    M35.54,60.93c-2.96,0-5.36-2.41-5.36-5.36s2.41-5.36,5.36-5.36s5.36,2.41,5.36,5.36S38.5,60.93,35.54,60.93z" />
        <path
            d="M38.57,53.28l-3.16,3.27l-1.57-1.64c-0.23-0.25-0.62-0.25-0.87-0.02c-0.25,0.23-0.25,0.62-0.02,0.87l2.01,2.11   c0.12,0.12,0.28,0.19,0.44,0.19c0,0,0,0,0,0c0.17,0,0.33-0.07,0.44-0.19l3.61-3.73c0.24-0.24,0.23-0.63-0.01-0.87   C39.19,53.03,38.8,53.03,38.57,53.28z" />
        <path
            d="M46.69,53.28h9.85c0.34,0,0.61-0.28,0.61-0.61c0-0.34-0.28-0.61-0.61-0.61h-9.85c-0.34,0-0.61,0.28-0.61,0.61   C46.07,53,46.35,53.28,46.69,53.28z" />
        <path
            d="M68.01,58.03H46.69c-0.34,0-0.61,0.28-0.61,0.61c0,0.34,0.28,0.61,0.61,0.61h21.32c0.34,0,0.61-0.28,0.61-0.61   C68.62,58.3,68.35,58.03,68.01,58.03z" />
        <path
            d="M35.54,65.94c-3.63,0-6.59,2.96-6.59,6.59s2.96,6.59,6.59,6.59c3.63,0,6.59-2.96,6.59-6.59S39.18,65.94,35.54,65.94z    M35.54,77.89c-2.96,0-5.36-2.41-5.36-5.36s2.41-5.36,5.36-5.36s5.36,2.41,5.36,5.36S38.5,77.89,35.54,77.89z" />
        <path
            d="M38.57,70.24l-3.16,3.27l-1.57-1.64c-0.23-0.25-0.62-0.25-0.87-0.02c-0.25,0.23-0.25,0.62-0.02,0.87l2.01,2.11   c0.12,0.12,0.28,0.19,0.44,0.19c0,0,0,0,0,0c0.17,0,0.33-0.07,0.44-0.19l3.61-3.73c0.24-0.24,0.23-0.63-0.01-0.87   C39.19,69.99,38.8,69.99,38.57,70.24z" />
        <path
            d="M46.69,70.24h9.85c0.34,0,0.61-0.28,0.61-0.61c0-0.34-0.28-0.61-0.61-0.61h-9.85c-0.34,0-0.61,0.28-0.61,0.61   C46.07,69.96,46.35,70.24,46.69,70.24z" />
        <path
            d="M68.01,74.99H46.69c-0.34,0-0.61,0.28-0.61,0.61c0,0.34,0.28,0.61,0.61,0.61h21.32c0.34,0,0.61-0.28,0.61-0.61   C68.62,75.26,68.35,74.99,68.01,74.99z" />
    </g>
</svg>