<svg xmlns="http://www.w3.org/2000/svg" version="1.1" viewBox="-5.0 -10.0 110.0 135.0">
 <g>
  <path d="m0.59375 13.266v73.469c0 7.4375 13.078 13.266 29.773 13.266 7.2773 0 14.227-1.1484 19.633-3.2305 5.4062 2.082 12.355 3.2305 19.633 3.2305 0.69922 0 1.3867-0.011719 2.0742-0.035156 0.078125 0.023437 0.16406 0.035156 0.25 0.035156 0.10938 0 0.21094-0.019531 0.30859-0.050781 15.418-0.57422 27.141-6.1719 27.141-13.215v-36.734c0-7.4414-13.078-13.27-29.77-13.27-3.2656 0-6.4531 0.22656-9.4961 0.67578l-0.003906-24.141v-0.015625c-0.019531-7.4297-13.09-13.25-29.77-13.25-16.684 0-29.75 5.8203-29.77 13.25 0 0.003906-0.003906 0.011719-0.003906 0.015625zm2.0469 17.156c4.2969 4.9375 14.949 8.3555 27.727 8.3555 12.777 0 23.43-3.418 27.727-8.3555v7.3203c-0.039062 0.007812-0.074219 0.015624-0.11328 0.023437-0.15625 0.027344-0.30859 0.058594-0.46094 0.089844-0.17188 0.035156-0.34375 0.066406-0.51172 0.10156-0.15234 0.03125-0.30469 0.0625-0.45703 0.097657-0.16797 0.035156-0.33203 0.070312-0.49609 0.10547-0.15234 0.035156-0.30078 0.066406-0.44922 0.10156-0.16016 0.039062-0.32422 0.074219-0.48438 0.11328-0.14844 0.035156-0.29297 0.070312-0.4375 0.10938-0.16016 0.039063-0.31641 0.082031-0.47266 0.12109-0.14453 0.039062-0.28516 0.078125-0.42578 0.11719-0.15234 0.042969-0.30859 0.085938-0.46094 0.12891-0.14062 0.039063-0.27734 0.082032-0.41797 0.12109-0.14844 0.042969-0.29688 0.089844-0.44141 0.13281-0.13281 0.039062-0.26172 0.082031-0.39062 0.12109v-1.043c0-0.5625-0.45703-1.0234-1.0234-1.0234-0.5625 0-1.0234 0.45703-1.0234 1.0234v1.7578c-0.003906 0-0.003906 0.003906-0.007813 0.003906-0.125 0.046876-0.25 0.097657-0.375 0.14844-0.12891 0.050781-0.26172 0.10547-0.38672 0.15625-0.12109 0.050781-0.24219 0.10156-0.36328 0.15234-0.125 0.054687-0.25 0.10938-0.375 0.16406-0.11719 0.050782-0.23438 0.10547-0.35156 0.15625-0.12109 0.054688-0.24219 0.11328-0.35938 0.16797-0.11328 0.054687-0.22656 0.10938-0.33594 0.16406-0.11719 0.058593-0.23438 0.11719-0.34766 0.17578-0.10938 0.054687-0.21484 0.10938-0.32422 0.16797-0.11328 0.058593-0.22266 0.12109-0.33203 0.17969-0.10547 0.058594-0.20703 0.11328-0.30859 0.17188-0.10938 0.0625-0.21484 0.12109-0.32031 0.18359-0.10156 0.058594-0.19922 0.11719-0.29688 0.17578-0.10156 0.0625-0.20312 0.125-0.30469 0.19141-0.09375 0.058594-0.1875 0.12109-0.28125 0.17969-0.097656 0.0625-0.19531 0.12891-0.28906 0.19531-0.089844 0.0625-0.17969 0.12109-0.26953 0.18359-0.09375 0.066406-0.18359 0.13281-0.27344 0.19922-0.085938 0.0625-0.17188 0.125-0.25391 0.1875-0.089844 0.066406-0.17578 0.13672-0.25781 0.20312-0.078125 0.0625-0.16016 0.12891-0.23828 0.19141-0.082031 0.070313-0.16406 0.14062-0.24219 0.21094-0.074218 0.066407-0.14844 0.12891-0.22266 0.19531-0.078125 0.070313-0.15234 0.14453-0.23047 0.21484-0.070313 0.066406-0.14063 0.13281-0.20703 0.19922-0.074218 0.074218-0.14453 0.14844-0.21484 0.22266-0.0625 0.066406-0.12891 0.13281-0.19141 0.19922-0.066406 0.074219-0.13281 0.15234-0.19922 0.22656-0.058594 0.066406-0.11719 0.13281-0.17188 0.20312-0.0625 0.078125-0.12109 0.15234-0.17969 0.23047-0.050781 0.066406-0.10547 0.13672-0.15625 0.20312-0.058594 0.078125-0.10938 0.16016-0.16406 0.23828-0.046874 0.066406-0.09375 0.13672-0.14062 0.20312-0.050782 0.082031-0.10156 0.16406-0.14844 0.24609-0.042969 0.070312-0.085938 0.13672-0.12109 0.20703-0.046875 0.082031-0.089844 0.16797-0.13281 0.25-0.035156 0.066406-0.074219 0.13672-0.10547 0.20312-0.042969 0.085938-0.078125 0.17578-0.11719 0.26562-0.027344 0.066406-0.058594 0.13281-0.085938 0.19922-0.039062 0.09375-0.070312 0.1875-0.10156 0.28125-0.023438 0.0625-0.046876 0.125-0.066407 0.1875-0.023437 0.070312-0.039062 0.14062-0.058593 0.21094-3.1172 0.48828-6.3906 0.73828-9.75 0.73828-7.707 0-14.797-1.3555-19.879-3.4922v-6.0156c0-0.5625-0.45703-1.0234-1.0234-1.0234-0.5625 0-1.0234 0.45703-1.0234 1.0234v5.0586c-3.6211-1.8984-5.8047-4.2539-5.8047-6.7734zm7.8477 39.555v-10.023c5.2344 2.0703 12.168 3.3164 19.879 3.3164 3.2656 0 6.4531-0.22656 9.4961-0.67578v10.172c-3.0352 0.46094-6.2227 0.69922-9.4961 0.69922-7.707 0-14.797-1.3516-19.879-3.4883zm38.488-0.33984c-4.5117-2.0703-7.0703-4.7188-7.0703-7.3906v-7.2969c0.058594 0.070312 0.12891 0.13672 0.19141 0.20312 0.125 0.13672 0.25 0.27344 0.38672 0.40625 0.09375 0.089844 0.19141 0.17969 0.28906 0.26953 0.13672 0.12891 0.27734 0.25391 0.42187 0.37891 0.10547 0.089844 0.21484 0.17969 0.32813 0.26953 0.15234 0.12109 0.30469 0.24219 0.46484 0.36328 0.11719 0.089844 0.23828 0.17578 0.36328 0.26562 0.16797 0.11719 0.33594 0.23438 0.51172 0.35156 0.12891 0.085938 0.25781 0.17188 0.39062 0.25391 0.18359 0.11719 0.375 0.23047 0.57031 0.34375 0.13672 0.078124 0.26953 0.16016 0.41016 0.23828 0.20703 0.11719 0.42188 0.23047 0.64062 0.33984 0.14062 0.070313 0.27344 0.14453 0.41797 0.21484 0.24609 0.12109 0.5 0.24219 0.75781 0.35938 0.125 0.058594 0.24609 0.11719 0.375 0.17578 0.18359 0.082032 0.37109 0.16016 0.55859 0.23828zm-38.488-11.906v-10.023c5.2344 2.0703 12.168 3.3164 19.879 3.3164 3.2578 0 6.4492-0.22656 9.4961-0.67188v10.172c-3.0352 0.46094-6.2227 0.69922-9.4961 0.69922-7.707 0-14.797-1.3555-19.879-3.4922zm0-29.027v-5.4844c5.2344 2.0703 12.168 3.3125 19.879 3.3125 12.77 0 23.426-3.4102 27.727-8.3438v7.3125 0.007812c0 2.5703-2.2695 4.9648-6.0156 6.8828v-2.7031c0-0.5625-0.45703-1.0234-1.0234-1.0234-0.5625 0-1.0234 0.45703-1.0234 1.0234v3.6445c-5.0664 2.0859-12.066 3.4023-19.668 3.4023-15.027 0-27.727-5.1406-27.727-11.223v-0.007813-7.3125c1.3516 1.5508 3.332 2.9492 5.8047 4.1406v6.375c0 0.5625 0.45703 1.0234 1.0234 1.0234 0.56641-0.003907 1.0234-0.46094 1.0234-1.0273zm47.605-15.438v0.003906c-0.007812 6.082-12.703 11.219-27.727 11.219-15.027 0-27.723-5.1367-27.727-11.219v-0.003906c0-6.082 12.695-11.223 27.727-11.223 15.027 0 27.727 5.1406 27.727 11.223zm39.266 36.734c0 2.457-2.0742 4.7617-5.5352 6.6328-0.039063 0.015626-0.074219 0.039063-0.11328 0.0625-5.1133 2.7305-13.188 4.5273-22.082 4.5273-3.582 0-7.0625-0.28125-10.348-0.83203-3.3125-0.55469-6.3125-1.3594-8.9062-2.3945-5.3828-2.1445-8.4688-5.0586-8.4688-7.9961 0-0.22656 0.019531-0.46094 0.058594-0.69141 0.10547-0.65234 0.36328-1.2969 0.76172-1.9258 2.0664-3.2773 7.8906-6.1641 15.582-7.6016 0.29688-0.054688 0.59375-0.10938 0.89453-0.16016 0.011719-0.003906 0.023437-0.003906 0.03125-0.003906 0.023437-0.003907 0.027344-0.003907 0.050781-0.007813 3.2852-0.55469 6.7695-0.83203 10.348-0.83203 15.031 0 27.727 5.1406 27.727 11.223zm-0.17188 5.1094c0.058594-0.0625 0.11719-0.125 0.17188-0.1875v7.3203c0 6.082-12.699 11.223-27.727 11.223-0.44922 0-0.89453-0.003906-1.3398-0.011719-0.89062-0.015625-1.7695-0.050781-2.6445-0.10547-1.3086-0.078125-2.6016-0.19531-3.8672-0.35156-0.84375-0.10547-1.6797-0.22656-2.5-0.36328-2.0703-0.34766-4.0195-0.79297-5.8242-1.3281-0.84766-0.25391-1.6602-0.52734-2.4414-0.82031l0.003906-10.07c2.3867 0.83984 5.043 1.5078 7.9258 1.9922 3.3984 0.57031 6.9922 0.85938 10.688 0.85938 0.47266 0 0.94141-0.007813 1.4062-0.015625 0.14063-0.003906 0.28125-0.007812 0.41797-0.011719 0.33594-0.007812 0.67188-0.019531 1.0039-0.03125 0.14453-0.007812 0.28906-0.011719 0.43359-0.019531 0.38281-0.019531 0.76562-0.039062 1.1484-0.0625 0.074219-0.003906 0.14844-0.007812 0.21875-0.011719 0.44922-0.03125 0.89453-0.066406 1.3359-0.10547 0.12109-0.011718 0.23828-0.023437 0.35938-0.035156 0.32812-0.03125 0.65234-0.0625 0.97656-0.097656 0.14062-0.015625 0.27734-0.03125 0.41406-0.046875 0.33594-0.039063 0.67188-0.082031 1.0039-0.125 0.097657-0.011719 0.19531-0.023437 0.29297-0.039063 0.42188-0.058593 0.84375-0.12109 1.2578-0.1875 0.09375-0.015624 0.1875-0.03125 0.27734-0.046874 0.32422-0.054688 0.64453-0.10938 0.96094-0.16797 0.12891-0.023438 0.25781-0.046875 0.38281-0.070313 0.30078-0.058594 0.59766-0.11719 0.89062-0.17578 0.10547-0.023437 0.21484-0.042969 0.32031-0.066406 0.39062-0.082031 0.78125-0.17188 1.1641-0.26172 0.054687-0.011719 0.10547-0.027344 0.16016-0.039062 0.32812-0.078126 0.65625-0.16406 0.97656-0.24609 0.11328-0.03125 0.22656-0.0625 0.33594-0.089844 0.26953-0.074219 0.53906-0.14844 0.80469-0.22656 0.10547-0.03125 0.21094-0.0625 0.31641-0.09375 0.71484-0.21484 1.4062-0.44531 2.0742-0.6875 0.097656-0.035157 0.19141-0.070313 0.28516-0.10547 0.24219-0.089844 0.48438-0.18359 0.71875-0.27734 0.097657-0.039063 0.19531-0.078125 0.29297-0.11719 0.26953-0.10938 0.53516-0.22266 0.79688-0.33594 0.046875-0.019531 0.09375-0.039062 0.14062-0.058594 0.13281-0.058594 0.26562-0.12109 0.39844-0.18359v4.5195c0 0.5625 0.45703 1.0234 1.0234 1.0234 0.5625 0 1.0234-0.45703 1.0234-1.0234v-5.5781c0.0625-0.035157 0.12109-0.070313 0.18359-0.10547 0.058593-0.035156 0.12109-0.070312 0.17969-0.10547 0.25391-0.15234 0.50391-0.3125 0.74609-0.46875 0.050781-0.035156 0.10156-0.070312 0.15234-0.10547 0.1875-0.125 0.37109-0.25391 0.54688-0.38672 0.070312-0.050782 0.14062-0.10547 0.21094-0.15625 0.16406-0.12109 0.32031-0.24609 0.47656-0.375 0.058593-0.046875 0.11719-0.09375 0.17187-0.14062 0.20313-0.17188 0.39844-0.34375 0.58594-0.51953 0.027344-0.023438 0.050781-0.046876 0.074219-0.074219 0.16016-0.15234 0.3125-0.30469 0.46094-0.46094 0.050782-0.046875 0.10156-0.10156 0.15234-0.16016zm0 12.242c0.058594-0.0625 0.11719-0.125 0.17188-0.1875v7.3203c0 0.19141-0.011719 0.37891-0.035156 0.56641-0.12109 0.94141-0.54688 1.8555-1.2344 2.7266-0.13672 0.17578-0.28516 0.34766-0.44141 0.51953-0.64063 0.69141-1.4492 1.3555-2.4023 1.9805v-3.8633c0-0.5625-0.45703-1.0234-1.0234-1.0234-0.5625 0-1.0234 0.45703-1.0234 1.0234v5.0312c-0.089844 0.042969-0.17188 0.089844-0.26172 0.13281-0.57031 0.27734-1.1719 0.54688-1.8047 0.80078-1.8945 0.76562-4.0547 1.4258-6.4102 1.9531-3.9258 0.875-8.3945 1.3789-13.09 1.3789-3.582 0-7.0625-0.28125-10.348-0.83203-3.3086-0.55469-6.3047-1.3594-8.9062-2.3984-5.3828-2.1445-8.4688-5.0586-8.4688-7.9961v-7.2969c0.058594 0.070312 0.12891 0.13672 0.19141 0.20312 0.125 0.13672 0.25 0.27344 0.38672 0.40625 0.09375 0.089844 0.19141 0.17969 0.28906 0.27344 0.13672 0.12891 0.27344 0.25391 0.42188 0.37891 0.10547 0.089843 0.21484 0.17969 0.32812 0.26953 0.15234 0.12109 0.30469 0.24219 0.46484 0.36328 0.11719 0.089844 0.23828 0.17578 0.36328 0.26562 0.16406 0.11719 0.33594 0.23438 0.51172 0.35156 0.12891 0.085937 0.25781 0.17188 0.39062 0.25391 0.18359 0.11719 0.375 0.23047 0.56641 0.33984 0.13672 0.082031 0.27344 0.16016 0.41406 0.24219 0.20703 0.11328 0.42188 0.22656 0.63672 0.33984 0.14062 0.074219 0.27734 0.14453 0.41797 0.21875 0.24609 0.12109 0.5 0.24219 0.75781 0.35938 0.125 0.058594 0.24609 0.11719 0.375 0.17578 0.18359 0.082032 0.375 0.16016 0.5625 0.23828v4.5469c0 0.5625 0.45703 1.0234 1.0234 1.0234 0.5625 0 1.0234-0.45703 1.0234-1.0234v-3.7578c2.3867 0.83984 5.043 1.5078 7.9258 1.9922 2.3359 0.39453 4.7656 0.64844 7.2539 0.77344v3.9492c0 0.5625 0.45703 1.0234 1.0234 1.0234 0.5625 0 1.0234-0.45703 1.0234-1.0234v-3.875c0.46094 0.007812 0.92578 0.015625 1.3906 0.015625 0.47266 0 0.94141-0.007813 1.4062-0.015625 0.14062-0.003906 0.28125-0.007813 0.41797-0.011719 0.33594-0.007813 0.67188-0.019531 1.0039-0.03125 0.14453-0.003906 0.28906-0.011719 0.43359-0.019531 0.38672-0.019532 0.76953-0.039063 1.1523-0.0625 0.070313-0.003906 0.14453-0.007813 0.21484-0.011719 0.44922-0.03125 0.89453-0.066406 1.3359-0.10156 0.12109-0.011718 0.24219-0.023437 0.36328-0.035156 0.32812-0.03125 0.65234-0.0625 0.97656-0.097656 0.14062-0.015625 0.27734-0.03125 0.41406-0.046875 0.33594-0.039063 0.66797-0.082031 1-0.125 0.097656-0.011719 0.19922-0.023437 0.29688-0.039063 0.42188-0.058593 0.84375-0.12109 1.2578-0.1875 0.09375-0.015624 0.18359-0.03125 0.27344-0.046874 0.32422-0.054688 0.64844-0.10938 0.96875-0.16797 0.125-0.023438 0.25391-0.046875 0.37891-0.070313 0.30078-0.058594 0.60156-0.11719 0.89844-0.17969 0.10547-0.023438 0.21094-0.042969 0.31641-0.066407 0.39453-0.082031 0.78125-0.17187 1.1641-0.26172 0.050781-0.011719 0.10156-0.027344 0.15234-0.039063 0.33203-0.082031 0.65625-0.16406 0.98047-0.25 0.11328-0.03125 0.22266-0.0625 0.33594-0.089843 0.27344-0.074219 0.53906-0.14844 0.80859-0.22656 0.10547-0.03125 0.20703-0.0625 0.3125-0.09375 0.71484-0.21484 1.4062-0.44531 2.0742-0.6875 0.09375-0.035156 0.1875-0.070313 0.28125-0.10547 0.24219-0.089844 0.48438-0.18359 0.71875-0.27734 0.097656-0.039062 0.19531-0.078124 0.29297-0.11719 0.26953-0.10938 0.53516-0.22266 0.79688-0.33984 0.042968-0.019531 0.089843-0.039062 0.13672-0.058593 0.30469-0.13672 0.60156-0.27344 0.89062-0.41797 0.074219-0.035157 0.14453-0.074219 0.21875-0.10938 0.21875-0.10938 0.42969-0.21875 0.64062-0.32812 0.085938-0.046875 0.17188-0.089844 0.25391-0.13672 0.21094-0.11719 0.41797-0.23438 0.62109-0.35547 0.058594-0.035156 0.12109-0.070312 0.17969-0.10547 0.25781-0.15234 0.50391-0.3125 0.74609-0.46875 0.050781-0.035156 0.10156-0.070312 0.15234-0.10156 0.1875-0.12891 0.37109-0.25781 0.55078-0.38672 0.070313-0.050781 0.14063-0.10547 0.21094-0.15625 0.16406-0.125 0.32422-0.24609 0.47656-0.375 0.058594-0.046875 0.11719-0.09375 0.17188-0.14062 0.20312-0.17188 0.39844-0.34375 0.58594-0.51953 0.027344-0.023437 0.050781-0.046875 0.074219-0.074219 0.16016-0.15234 0.3125-0.30469 0.46094-0.46094 0.035157-0.046875 0.085938-0.10156 0.13672-0.16016zm-3.9414 25.172v-9.8672c0.0625-0.035156 0.12109-0.070312 0.18359-0.10547 0.058593-0.035156 0.12109-0.066406 0.17578-0.10156 0.25391-0.15234 0.50391-0.3125 0.74609-0.46875 0.050782-0.035157 0.10156-0.070313 0.15234-0.10547 0.1875-0.12891 0.37109-0.25781 0.55078-0.38672 0.070312-0.050781 0.14062-0.10547 0.21094-0.15625 0.16406-0.125 0.32422-0.25 0.47656-0.375 0.058593-0.046875 0.11719-0.09375 0.17187-0.14062 0.20313-0.17188 0.39844-0.34375 0.58594-0.51953 0.027344-0.023437 0.050781-0.050781 0.074219-0.074219 0.16016-0.15234 0.3125-0.30469 0.46094-0.46094 0.054688-0.054688 0.10547-0.11328 0.15625-0.16797 0.058594-0.0625 0.11719-0.125 0.17188-0.1875v7.3242c-0.003906 2.1055-1.5156 4.0938-4.1172 5.793zm-23.613 5.4336c-7.1953 0-14.031-1.1484-19.258-3.2305-4.0391-1.6094-6.7852-3.6484-7.9023-5.8047-0.375-0.71875-0.56641-1.4531-0.56641-2.1836v-7.2969c0.058594 0.066406 0.12891 0.13281 0.19141 0.20312 0.125 0.13672 0.25 0.27344 0.38672 0.40625 0.09375 0.089844 0.19141 0.17969 0.28906 0.26953 0.13672 0.12891 0.27734 0.25391 0.42187 0.37891 0.10547 0.089843 0.21484 0.17969 0.32813 0.26953 0.15234 0.12109 0.30469 0.24219 0.46484 0.36328 0.11719 0.089844 0.23828 0.17578 0.35938 0.26172 0.16797 0.11719 0.33594 0.23438 0.51172 0.35156 0.12891 0.085938 0.25781 0.16797 0.39062 0.25391 0.18359 0.11719 0.375 0.23047 0.57031 0.34375 0.13672 0.078125 0.26953 0.16016 0.41016 0.23828 0.20703 0.11719 0.42188 0.23047 0.64062 0.34375 0.13672 0.070312 0.27344 0.14453 0.41406 0.21484 0.24609 0.12109 0.5 0.24219 0.75781 0.35938 0.125 0.058593 0.24609 0.11719 0.375 0.17578 0.39062 0.17188 0.78906 0.34375 1.2031 0.50781 2.7383 1.0898 5.875 1.9375 9.3242 2.5156 3.3984 0.57031 6.9922 0.85937 10.688 0.85937 0.47266 0 0.94141-0.007812 1.4062-0.015624 0.14063-0.003907 0.28125-0.007813 0.42188-0.011719 0.33594-0.007813 0.66797-0.019531 1-0.03125 0.14453-0.007813 0.28906-0.011719 0.43359-0.019531 0.38672-0.019532 0.76562-0.039063 1.1484-0.0625 0.074219-0.003907 0.14844-0.007813 0.21875-0.011719 0.44922-0.03125 0.89062-0.066407 1.332-0.10156 0.12109-0.011718 0.24219-0.023437 0.36328-0.035156 0.32812-0.03125 0.65234-0.0625 0.97656-0.097656 0.13672-0.015625 0.27734-0.03125 0.41406-0.046875 0.33594-0.039063 0.67188-0.082031 1.0039-0.125 0.097657-0.011719 0.19922-0.023438 0.29688-0.039063 0.42187-0.058594 0.84375-0.12109 1.2578-0.1875 0.09375-0.015625 0.18359-0.03125 0.27734-0.046875 0.32422-0.054687 0.64844-0.10938 0.96484-0.16797 0.12891-0.023437 0.25391-0.046874 0.38281-0.070312 0.30078-0.058594 0.60156-0.11719 0.89844-0.17969 0.10547-0.023437 0.21094-0.042968 0.31641-0.066406 0.39453-0.085937 0.78125-0.17188 1.1641-0.26172 0.050782-0.011719 0.10156-0.027344 0.15625-0.039063 0.33203-0.082031 0.65625-0.16406 0.98047-0.25 0.11328-0.03125 0.22656-0.0625 0.33594-0.089844 0.27344-0.074219 0.53906-0.14844 0.80469-0.22656 0.10547-0.03125 0.21094-0.0625 0.3125-0.09375 0.71484-0.21484 1.4062-0.44531 2.0742-0.6875 0.09375-0.035157 0.1875-0.070313 0.28125-0.10547 0.24219-0.089844 0.48438-0.18359 0.71875-0.27734 0.097656-0.039062 0.19531-0.078125 0.29297-0.11719 0.26953-0.10938 0.53516-0.22266 0.79687-0.33594 0.046876-0.019531 0.09375-0.039062 0.13672-0.058593 0.13281-0.058594 0.26562-0.12109 0.39844-0.18359v9.9727c-4.457 2.2422-10.953 3.8047-18.223 4.1758v-2.7266c0-0.5625-0.45703-1.0234-1.0234-1.0234-0.5625 0-1.0234 0.45703-1.0234 1.0234v2.8008c-0.42578 0.011719-0.85938 0.019531-1.2969 0.019531zm-39.266 0c-7.707 0-14.797-1.3516-19.879-3.4922v-10.023c5.2344 2.0703 12.168 3.3164 19.879 3.3164 3.2695 0 6.4648-0.22656 9.5117-0.67578 0.007813 0.10938 0.007813 0.22266 0.019532 0.33203 0.007812 0.074219 0.023437 0.14453 0.03125 0.21875 0.019531 0.15234 0.042968 0.30078 0.078124 0.45313 0.019532 0.085937 0.042969 0.16797 0.0625 0.25391 0.035157 0.13672 0.074219 0.27344 0.11719 0.41016 0.027344 0.085938 0.058594 0.17578 0.089844 0.26172 0.050781 0.13281 0.10156 0.26562 0.16016 0.39844 0.035156 0.085938 0.074219 0.16797 0.11328 0.25391 0.066407 0.13672 0.14062 0.27344 0.21484 0.41016 0.042969 0.078125 0.082031 0.15234 0.12891 0.23047 0.09375 0.16016 0.19922 0.31641 0.30859 0.47266 0.035156 0.050781 0.066406 0.10156 0.10156 0.15234 0.14844 0.20703 0.30859 0.41016 0.47656 0.61328 0.042969 0.050781 0.085938 0.097656 0.12891 0.14453 0.13281 0.15234 0.26953 0.30469 0.41406 0.45312 0.070312 0.070313 0.14453 0.14062 0.21484 0.21094 0.12891 0.125 0.25781 0.25 0.39844 0.375 0.082031 0.074219 0.17188 0.14844 0.25781 0.22656 0.13672 0.11719 0.27734 0.23438 0.42188 0.34766 0.09375 0.074219 0.1875 0.14844 0.28516 0.22266 0.15234 0.11719 0.30859 0.23047 0.46875 0.34375 0.097656 0.070312 0.19531 0.14062 0.29688 0.20703 0.17969 0.12109 0.36719 0.24219 0.55469 0.35938 0.089844 0.058594 0.17578 0.11328 0.26953 0.17188 0.28516 0.17188 0.57812 0.34375 0.88281 0.51172h0.003906c0.28125 0.15625 0.57422 0.30859 0.87109 0.45703-4.8398 1.543-10.73 2.3828-16.883 2.3828zm-27.727-18.555c1.3516 1.5547 3.3281 2.957 5.8047 4.1484v9.9609c-3.6211-1.8984-5.8047-4.2539-5.8047-6.7734zm0-12.246c4.2969 4.9375 14.945 8.3555 27.727 8.3555 3.2656 0 6.4531-0.22656 9.4961-0.67578v10.18c-3.0352 0.46094-6.2227 0.69922-9.4961 0.69922-7.707 0-14.797-1.3555-19.879-3.4922v-3.9766c0-0.5625-0.45703-1.0234-1.0234-1.0234-0.5625 0-1.0234 0.45703-1.0234 1.0234v3.0195c-3.6211-1.8984-5.8047-4.2539-5.8047-6.7773zm0-12.242c1.3516 1.5547 3.3281 2.9531 5.8047 4.1484v9.957c-3.6211-1.8984-5.8047-4.2539-5.8047-6.7734zm0-12.246c1.3516 1.5547 3.3281 2.957 5.8047 4.1484v9.9609c-3.6211-1.8984-5.8047-4.2539-5.8047-6.7734z"/>
  <path d="m90.18 48.305c-0.21875 0-0.4375-0.070313-0.62109-0.21094-0.042969-0.035156-4.4102-3.3477-8.0625-3.1953-0.57031 0.023437-1.0391-0.41406-1.0625-0.98047-0.023438-0.5625 0.41406-1.0391 0.98047-1.0625 4.3984-0.17969 9.1875 3.4609 9.3906 3.6133 0.44531 0.34375 0.53125 0.98438 0.1875 1.4336-0.20313 0.26562-0.50391 0.40234-0.8125 0.40234z"/>
 </g>
</svg>