<svg xmlns="http://www.w3.org/2000/svg" version="1.1" viewBox="-5.0 -10.0 110.0 135.0">
    <path
        d="m89.094 28.836c3.8633-2.5977 6.2188-6.9258 6.2188-11.648 0-7.7539-6.3086-14.062-14.062-14.062-4.7227 0-9.0469 2.3555-11.648 6.2188-5.8984-2.9727-12.555-4.6562-19.602-4.6562s-13.707 1.6875-19.609 4.6602c-2.6016-3.8516-6.9531-6.2227-11.641-6.2227-7.7539 0-14.062 6.3086-14.062 14.062 0 4.7227 2.3555 9.0469 6.2188 11.648-2.9727 5.9023-4.6562 12.555-4.6562 19.602 0 11.066 4.1367 21.18 10.938 28.891v14.859c0 2.5859 2.1016 4.6875 4.6875 4.6875h4.6875c2.5859 0 4.6875-2.1016 4.6875-4.6875v-4.2305c5.6875 2.7109 12.043 4.2305 18.75 4.2305s13.062-1.5195 18.75-4.2305v4.2305c0 2.5859 2.1016 4.6875 4.6875 4.6875h4.6875c2.5859 0 4.6875-2.1016 4.6875-4.6875v-14.859c6.8008-7.7109 10.938-17.824 10.938-28.891 0-7.0469-1.6836-13.699-4.6562-19.602zm-7.8438-22.586c6.0312 0 10.938 4.9062 10.938 10.938 0 3.5781-1.7266 6.8711-4.5898 8.9102-3.7383-6.2656-8.9922-11.52-15.254-15.254 2.0352-2.8672 5.3281-4.5938 8.9062-4.5938zm-73.438 10.938c0-6.0312 4.9062-10.938 10.938-10.938 3.5508 0 6.8555 1.7422 8.8945 4.5977-6.2578 3.7344-11.508 8.9883-15.242 15.246-2.8633-2.0352-4.5898-5.3281-4.5898-8.9062zm20.312 75c0 0.86328-0.69922 1.5625-1.5625 1.5625h-4.6875c-0.86328 0-1.5625-0.69922-1.5625-1.5625v-11.652c2.375 2.1992 4.9961 4.1328 7.8125 5.7656zm-18.75-43.75c0-22.402 18.223-40.625 40.625-40.625s40.625 18.223 40.625 40.625-18.223 40.625-40.625 40.625-40.625-18.223-40.625-40.625zm68.75 45.312h-4.6875c-0.86328 0-1.5625-0.69922-1.5625-1.5625v-5.8867c2.8164-1.6328 5.4375-3.5664 7.8125-5.7656v11.652c0 0.86328-0.69922 1.5625-1.5625 1.5625zm-2.6602-19.98c6.4688-6.5 10.473-15.457 10.473-25.332s-4.0039-18.832-10.473-25.332c-0.019532-0.023438-0.027344-0.054688-0.050782-0.078125-0.023437-0.023438-0.054687-0.03125-0.078124-0.050782-6.5039-6.4727-15.461-10.477-25.336-10.477s-18.832 4.0039-25.332 10.473c-0.023438 0.019532-0.054688 0.027344-0.078125 0.050782-0.023438 0.023437-0.03125 0.054687-0.050782 0.078124-6.4727 6.5039-10.477 15.461-10.477 25.336s4.0039 18.832 10.473 25.332c0.019532 0.023438 0.027344 0.054688 0.050782 0.078125 0.023437 0.023438 0.054687 0.03125 0.078124 0.050782 6.5039 6.4727 15.461 10.477 25.336 10.477s18.832-4.0039 25.332-10.473c0.023438-0.019532 0.054688-0.027344 0.078125-0.050782 0.023438-0.027343 0.03125-0.058593 0.054688-0.082031zm-4.4727-6.5508c-0.60938-0.60938-1.5977-0.60938-2.2109 0-0.60938 0.60938-0.60938 1.5977 0 2.2109l3.25 3.25c-5.4648 4.9766-12.602 8.1172-20.469 8.4922v-4.6094c0-0.86328-0.69922-1.5625-1.5625-1.5625s-1.5625 0.69922-1.5625 1.5625v4.6094c-7.8672-0.375-15.004-3.5156-20.473-8.4883l3.25-3.25c0.60938-0.60938 0.60938-1.5977 0-2.2109-0.60938-0.60938-1.5977-0.60938-2.2109 0l-3.25 3.25c-4.9727-5.4688-8.1133-12.605-8.4883-20.473h4.6094c0.86328 0 1.5625-0.69922 1.5625-1.5625s-0.69922-1.5625-1.5625-1.5625h-4.6094c0.375-7.8672 3.5156-15.004 8.4883-20.473l3.25 3.25c0.30469 0.30469 0.70312 0.45703 1.1055 0.45703 0.39844 0 0.80078-0.15234 1.1055-0.45703 0.60938-0.60938 0.60938-1.5977 0-2.2109l-3.25-3.25c5.4688-4.9727 12.605-8.1133 20.473-8.4883v4.6094c0 0.86328 0.69922 1.5625 1.5625 1.5625s1.5625-0.69922 1.5625-1.5625v-4.6094c7.8672 0.375 15.004 3.5156 20.473 8.4883l-3.25 3.25c-0.60938 0.60938-0.60938 1.5977 0 2.2109 0.30469 0.30469 0.70312 0.45703 1.1055 0.45703 0.39844 0 0.80078-0.15234 1.1055-0.45703l3.25-3.25c4.9727 5.4688 8.1133 12.605 8.4883 20.473h-4.6094c-0.86328 0-1.5625 0.69922-1.5625 1.5625s0.69922 1.5625 1.5625 1.5625h4.6094c-0.375 7.8672-3.5156 15.004-8.4883 20.473zm-2.6992-19.887c0.60938 0.60938 0.60938 1.5977 0 2.2109l-4.6875 4.6875c-0.30469 0.30469-0.70703 0.45703-1.1055 0.45703s-0.80078-0.15234-1.1055-0.45703c-0.60938-0.60938-0.60938-1.5977 0-2.2109l2.0195-2.0195h-13.414c-0.86328 0-1.5625-0.69922-1.5625-1.5625v-17.188l-1.875 2.5c-0.51562 0.6875-1.4922 0.83203-2.1875 0.3125-0.69141-0.51562-0.82812-1.4961-0.3125-2.1875l4.6875-6.25c0.58984-0.78906 1.9102-0.78906 2.5 0l4.6875 6.25c0.51953 0.69141 0.37891 1.6719-0.3125 2.1875-0.28125 0.21094-0.60938 0.3125-0.9375 0.3125-0.47656 0-0.94531-0.21484-1.25-0.625l-1.875-2.5v15.625h11.852l-2.0195-2.0195c-0.60938-0.60938-0.60938-1.5977 0-2.2109 0.60938-0.60938 1.5977-0.60938 2.2109 0z" />
</svg>